<?xml version="1.0" standalone="no"?>
<!DOCTYPE svg PUBLIC "-//W3C//DTD SVG 20010904//EN"
 "http://www.w3.org/TR/2001/REC-SVG-20010904/DTD/svg10.dtd">
<svg version="1.0" xmlns="http://www.w3.org/2000/svg"
 width="750.000000pt" height="750.000000pt" viewBox="0 0 750.000000 750.000000"
 preserveAspectRatio="xMidYMid meet">

<g transform="translate(0.000000,750.000000) scale(0.100000,-0.100000)"
fill="#000000" stroke="none">
<path d="M1170 5832 c0 -5 65 -47 144 -95 313 -186 683 -445 926 -647 158
-132 462 -435 564 -564 233 -292 378 -583 421 -846 18 -111 20 -281 4 -383
-11 -71 -89 -352 -195 -700 -30 -99 -54 -192 -54 -207 0 -38 17 -80 43 -109
25 -27 763 -583 814 -614 34 -20 35 -20 52 -1 12 13 23 56 35 137 22 156 56
270 117 396 91 186 244 312 455 373 69 20 100 23 249 22 156 0 177 -2 260 -28
50 -15 155 -55 235 -89 145 -62 814 -391 1029 -506 63 -33 117 -58 120 -55 3
3 -58 67 -136 142 -619 599 -933 908 -933 921 0 9 7 56 15 104 99 607 -46
1184 -396 1569 -213 235 -524 394 -961 492 -64 14 -123 26 -132 26 -14 0 -16
-24 -16 -225 0 -173 3 -225 13 -225 6 0 39 -13 73 -29 78 -37 155 -115 197
-200 31 -63 32 -70 32 -186 0 -114 -2 -123 -32 -187 -140 -296 -521 -330 -698
-62 -165 248 -50 571 236 667 14 4 17 38 22 238 4 128 3 237 -1 241 -5 5 -64
19 -133 33 -562 110 -1675 392 -2254 571 -44 14 -88 27 -97 30 -10 3 -18 1
-18 -4z m3578 -1777 c104 -44 152 -168 102 -264 -91 -179 -340 -118 -340 83 0
138 121 229 238 181z"/>
<path d="M3670 4591 c-78 -25 -146 -89 -183 -170 -32 -68 -30 -169 4 -241 36
-77 71 -115 136 -146 137 -67 297 -11 371 131 35 68 38 196 6 266 -26 56 -80
112 -137 140 -45 24 -153 35 -197 20z m191 -48 c98 -50 145 -141 137 -263 -7
-100 -57 -177 -143 -223 -62 -33 -165 -31 -227 5 -157 93 -185 309 -56 435 55
54 99 72 174 73 47 0 73 -6 115 -27z"/>
</g>
</svg>
